<svg xmlns="http://www.w3.org/2000/svg" style="display:none">
  <symbol id="plus" viewBox="0 0 24 24" width="24" height="24" fill="none" stroke="currentColor" stroke-width="2" stroke-linecap="round" stroke-linejoin="round">
    <path d="M5 12h14" />
  
    <path d="M12 5v14" />

  </symbol>
  <symbol id="list" viewBox="0 0 24 24" width="24" height="24" fill="none" stroke="currentColor" stroke-width="2" stroke-linecap="round" stroke-linejoin="round">
    <path d="M3 5h.01" />
  
    <path d="M3 12h.01" />
  
    <path d="M3 19h.01" />
  
    <path d="M8 5h13" />
  
    <path d="M8 12h13" />
  
    <path d="M8 19h13" />

  </symbol>
  <symbol id="settings-2" viewBox="0 0 24 24" width="24" height="24" fill="none" stroke="currentColor" stroke-width="2" stroke-linecap="round" stroke-linejoin="round">
    <path d="M14 17H5" />
  
    <path d="M19 7h-9" />
  
    <circle cx="17" cy="17" r="3" />
  
    <circle cx="7" cy="7" r="3" />

  </symbol>
  <symbol id="audio-lines" viewBox="0 0 24 24" width="24" height="24" fill="none" stroke="currentColor" stroke-width="2" stroke-linecap="round" stroke-linejoin="round">
    <path d="M2 10v3" />
  
    <path d="M6 6v11" />
  
    <path d="M10 3v18" />
  
    <path d="M14 8v7" />
  
    <path d="M18 5v13" />
  
    <path d="M22 10v3" />

  </symbol>
  <symbol id="folder-open" viewBox="0 0 24 24" width="24" height="24" fill="none" stroke="currentColor" stroke-width="2" stroke-linecap="round" stroke-linejoin="round">
    <path d="m6 14 1.5-2.9A2 2 0 0 1 9.24 10H20a2 2 0 0 1 1.94 2.5l-1.54 6a2 2 0 0 1-1.95 1.5H4a2 2 0 0 1-2-2V5a2 2 0 0 1 2-2h3.9a2 2 0 0 1 1.69.9l.81 1.2a2 2 0 0 0 1.67.9H18a2 2 0 0 1 2 2v2" />

  </symbol>
  <symbol id="play" viewBox="0 0 24 24" width="24" height="24" fill="none" stroke="currentColor" stroke-width="2" stroke-linecap="round" stroke-linejoin="round">
    <path d="M5 5a2 2 0 0 1 3.008-1.728l11.997 6.998a2 2 0 0 1 .003 3.458l-12 7A2 2 0 0 1 5 19z" />

  </symbol>
  <symbol id="download" viewBox="0 0 24 24" width="24" height="24" fill="none" stroke="currentColor" stroke-width="2" stroke-linecap="round" stroke-linejoin="round">
    <path d="M12 15V3" />
  
    <path d="M21 15v4a2 2 0 0 1-2 2H5a2 2 0 0 1-2-2v-4" />
  
    <path d="m7 10 5 5 5-5" />

  </symbol>
  <symbol id="eye" viewBox="0 0 24 24" width="24" height="24" fill="none" stroke="currentColor" stroke-width="2" stroke-linecap="round" stroke-linejoin="round">
    <path d="M2.062 12.348a1 1 0 0 1 0-.696 10.75 10.75 0 0 1 19.876 0 1 1 0 0 1 0 .696 10.75 10.75 0 0 1-19.876 0" />
  
    <circle cx="12" cy="12" r="3" />

  </symbol>
  <symbol id="copy" viewBox="0 0 24 24" width="24" height="24" fill="none" stroke="currentColor" stroke-width="2" stroke-linecap="round" stroke-linejoin="round">
    <rect width="14" height="14" x="8" y="8" rx="2" ry="2" />
  
    <path d="M4 16c-1.1 0-2-.9-2-2V4c0-1.1.9-2 2-2h10c1.1 0 2 .9 2 2" />

  </symbol>
  <symbol id="trash-2" viewBox="0 0 24 24" width="24" height="24" fill="none" stroke="currentColor" stroke-width="2" stroke-linecap="round" stroke-linejoin="round">
    <path d="M10 11v6" />
  
    <path d="M14 11v6" />
  
    <path d="M19 6v14a2 2 0 0 1-2 2H7a2 2 0 0 1-2-2V6" />
  
    <path d="M3 6h18" />
  
    <path d="M8 6V4a2 2 0 0 1 2-2h4a2 2 0 0 1 2 2v2" />

  </symbol>
  <symbol id="circle-question-mark" viewBox="0 0 24 24" width="24" height="24" fill="none" stroke="currentColor" stroke-width="2" stroke-linecap="round" stroke-linejoin="round">
    <circle cx="12" cy="12" r="10" />
  
    <path d="M9.09 9a3 3 0 0 1 5.83 1c0 2-3 3-3 3" />
  
    <path d="M12 17h.01" />

  </symbol>
  <symbol id="external-link" viewBox="0 0 24 24" width="24" height="24" fill="none" stroke="currentColor" stroke-width="2" stroke-linecap="round" stroke-linejoin="round">
    <path d="M15 3h6v6" />
  
    <path d="M10 14 21 3" />
  
    <path d="M18 13v6a2 2 0 0 1-2 2H5a2 2 0 0 1-2-2V8a2 2 0 0 1 2-2h6" />

  </symbol>
  <symbol id="chevron-left" viewBox="0 0 24 24" width="24" height="24" fill="none" stroke="currentColor" stroke-width="2" stroke-linecap="round" stroke-linejoin="round">
    <path d="m15 18-6-6 6-6" />

  </symbol>
  <symbol id="chevron-right" viewBox="0 0 24 24" width="24" height="24" fill="none" stroke="currentColor" stroke-width="2" stroke-linecap="round" stroke-linejoin="round">
    <path d="m9 18 6-6-6-6" />

  </symbol>
  <symbol id="ellipsis" viewBox="0 0 24 24" width="24" height="24" fill="none" stroke="currentColor" stroke-width="2" stroke-linecap="round" stroke-linejoin="round">
    <circle cx="12" cy="12" r="1" />
  
    <circle cx="19" cy="12" r="1" />
  
    <circle cx="5" cy="12" r="1" />

  </symbol>
  <symbol id="circle-check-big" viewBox="0 0 24 24" width="24" height="24" fill="none" stroke="currentColor" stroke-width="2" stroke-linecap="round" stroke-linejoin="round">
    <path d="M21.801 10A10 10 0 1 1 17 3.335" />
  
    <path d="m9 11 3 3L22 4" />

  </symbol>
  <symbol id="save" viewBox="0 0 24 24" width="24" height="24" fill="none" stroke="currentColor" stroke-width="2" stroke-linecap="round" stroke-linejoin="round">
    <path d="M15.2 3a2 2 0 0 1 1.4.6l3.8 3.8a2 2 0 0 1 .6 1.4V19a2 2 0 0 1-2 2H5a2 2 0 0 1-2-2V5a2 2 0 0 1 2-2z" />
  
    <path d="M17 21v-7a1 1 0 0 0-1-1H8a1 1 0 0 0-1 1v7" />
  
    <path d="M7 3v4a1 1 0 0 0 1 1h7" />

  </symbol>
</svg>
